<svg width="113" height="61" viewBox="0 0 113 61" fill="none" xmlns="http://www.w3.org/2000/svg">
<path d="M42.5328 38.2785C44.721 38.2785 46.4948 36.5103 46.4948 34.3291C46.4948 32.1479 44.721 30.3797 42.5328 30.3797C40.3446 30.3797 38.5707 32.1479 38.5707 34.3291C38.5707 36.5103 40.3446 38.2785 42.5328 38.2785Z" fill="#FFA000"/>
<path d="M27.5988 31.1392C26.8368 31.1392 26.0749 30.9873 25.313 30.5316C17.5412 25.8228 15.8649 19.443 15.7125 19.1392C15.7125 18.8354 15.5602 18.6835 15.7125 18.3797C15.7125 18.0759 16.4745 11.8481 22.2652 6.98734C15.5602 5.62025 6.26451 6.07595 2.45482 6.53165C1.23572 6.68354 0.169004 5.77215 0.0166161 4.55696C-0.135772 3.34177 0.778559 2.27848 1.99766 2.12658C2.15005 2.12658 6.87406 1.67089 12.5124 1.67089C18.9127 1.82278 23.7891 2.43038 27.4464 3.79747C31.1037 2.43038 36.742 1.21519 44.0566 0.607595C50.6093 0.151899 56.2477 0 56.4 0C56.7048 0 62.1908 0.151899 68.7434 0.759494C76.058 1.51899 81.544 2.58228 85.3537 3.94937C88.8586 2.58228 93.8874 1.82278 100.288 1.82278C105.926 1.67089 110.65 2.12658 110.802 2.27848C112.022 2.43038 112.936 3.49367 112.783 4.70886C112.631 5.92405 111.564 6.83544 110.345 6.68354C106.536 6.37975 97.3923 5.92405 90.5349 7.13924C96.478 12 97.0875 18.2278 97.0875 18.5316C97.0875 18.8354 97.0875 18.9873 97.0875 19.2911C97.0875 19.5949 95.2589 25.9747 87.4871 30.6835C86.1156 31.5949 84.287 31.5949 82.9155 30.6835C75.1437 25.9747 73.4675 19.5949 73.3151 19.2911C73.3151 18.9873 73.1627 18.8354 73.3151 18.5316C73.3151 18.2278 74.077 11.8481 80.0201 6.98734C72.4007 5.16456 60.9717 4.55696 56.2477 4.40506C51.5236 4.40506 40.0946 5.01266 32.4752 6.98734C38.4183 11.8481 39.1802 18.2278 39.1802 18.5316C39.1802 18.8354 39.1802 18.9873 39.1802 19.2911C39.1802 19.5949 37.3516 25.9747 29.5798 30.6835C29.1227 30.9873 28.3607 31.1392 27.5988 31.1392ZM20.1318 18.5316C20.5889 19.7468 22.2652 23.6962 27.5988 26.7342C32.78 23.6962 34.6086 19.5949 35.0658 18.5316C34.9134 17.924 34.6086 16.7089 33.9991 15.1899C32.6276 12.4557 30.6465 10.3291 27.9036 8.81013C27.9036 8.81013 27.9036 8.81013 27.7512 8.81013H27.5988C21.6557 12 20.4366 17.0127 20.1318 18.5316ZM77.8867 18.5316C78.3439 19.7468 80.0201 23.6962 85.3537 26.7342C90.5349 23.6962 92.3635 19.5949 92.8207 18.5316C92.6683 17.924 92.3635 16.7089 91.754 15.1899C90.3825 12.4557 88.4015 10.3291 85.6585 8.81013C85.6585 8.81013 85.6585 8.81013 85.5061 8.81013C85.5061 8.81013 85.5061 8.81013 85.3537 8.81013C79.563 12 78.1915 17.0127 77.8867 18.5316Z" fill="#FFA000"/>
<path d="M69.5054 60C65.0862 60 61.7336 58.481 59.4478 56.962C58.2287 56.0506 57.162 55.1393 56.4001 54.2279C55.6381 55.1393 54.5714 56.0506 53.3523 56.962C50.1522 59.0886 44.8186 61.3671 36.8944 59.0886C31.2561 57.4177 27.294 54.5317 25.313 50.4304C22.2652 44.3544 24.7034 37.8228 24.7034 37.519C25.1606 36.4557 26.3797 35.8481 27.5988 36.3038C28.6655 36.7595 29.2751 37.9747 28.8179 39.1899C28.8179 39.1899 26.9892 44.2025 29.2751 48.6076C30.7989 51.4937 33.6943 53.6203 38.1135 54.8354C49.695 58.1772 54.1143 49.9747 54.419 49.519C54.7238 48.7595 55.4857 48.3038 56.4001 48.3038C57.3144 48.3038 58.0763 48.7595 58.3811 49.519C58.5335 49.8228 61.7336 55.5949 69.5054 55.5949C71.0293 55.5949 72.8579 55.2911 74.6866 54.8354C79.1058 53.6203 82.1536 51.4937 83.5251 48.4557C85.6585 44.0506 83.9822 39.1899 83.8298 39.038C83.3727 37.9747 83.9822 36.6076 85.0489 36.1519C86.1157 35.6962 87.4871 36.3038 87.9443 37.3671C88.0967 37.6709 90.5349 44.2025 87.3348 50.2785C85.3537 54.3798 81.3916 57.2658 75.7533 58.9367C73.6199 59.6962 71.4864 60 69.5054 60Z" fill="#FFA000"/>
<path d="M70.2673 38.2785C72.4555 38.2785 74.2294 36.5103 74.2294 34.3291C74.2294 32.1479 72.4555 30.3797 70.2673 30.3797C68.0791 30.3797 66.3052 32.1479 66.3052 34.3291C66.3052 36.5103 68.0791 38.2785 70.2673 38.2785Z" fill="#FFA000"/>
<path d="M58.2287 39.4937C59.4478 39.4937 60.5145 40.4051 60.5145 42.0759C60.5145 44.3544 58.6859 45.7215 56.4 46.6329C54.1142 45.7215 52.2856 44.3544 52.2856 42.0759C52.2856 40.4051 53.3523 39.4937 54.5714 39.4937C55.3333 39.4937 55.9429 39.7975 56.4 40.4051C56.8572 39.9494 57.3144 39.4937 58.2287 39.4937Z" fill="#FFA000"/>
</svg>
